<?xml version="1.0" standalone="no"?>
<svg viewBox="0 0 2000 2000" version="1.1" xmlns="http://www.w3.org/2000/svg" xmlns:xlink="http://www.w3.org/1999/xlink" stroke-linecap="butt" stroke-linejoin="crop" fill-rule="evenodd" xml:space="preserve" >
<defs >
<clipPath id="clipId0" >
<path d="M0,2000 2000,2000 2000,0 0,0 z" />
</clipPath>
</defs>
<g clip-path="url(#clipId0)" fill="none" stroke="param(outline)" stroke-width="2" >
<polyline points="1000,1001 1120,1001 1000,1120 1001,1000" />
</g>
<g clip-path="url(#clipId0)" fill="none" stroke="param(outline)" stroke-width="3" >
<polyline points="1002,1002 1117,1002 1002,1115 1002,1002" />
<polyline points="1002,1005 1111,1005 1005,1109 1004,1004" />
<polyline points="1006,1007 1104,1008 1007,1103 1007,1006" />
<polyline points="1010,1010 1097,1011 1010,1096 1010,1008" />
<polyline points="1013,1013 1090,1014 1013,1089 1013,1011" />
<polyline points="1015,1015 1085,1015 1015,1083 1015,1014" />
<polyline points="1018,1018 1078,1018 1018,1076 1018,1015" />
<polyline points="1021,1021 1071,1021 1021,1069 1021,1019" />
<polyline points="1024,1024 1064,1024 1024,1062 1024,1022" />
<polyline points="1027,1027 1057,1027 1027,1055 1027,1023" />
<polyline points="1030,1030 1050,1030 1030,1048 1030,1028" />
<polyline points="1032,1033 1043,1033 1033,1042 1033,1032" />
<polyline points="1034,1035 1039,1034 1033,1039 1034,1035" />
</g>
<g clip-path="url(#clipId0)" fill="none" stroke="param(outline)"   stroke-width="2" >
<circle cx="1000" cy="1000" r="4" />
</g>
</svg>
